<?xml version="1.0" encoding="utf-8"?>
<!-- Generator: Adobe Illustrator 26.5.0, SVG Export Plug-In . SVG Version: 6.00 Build 0)  -->
<svg version="1.1" id="Capa_1" xmlns="http://www.w3.org/2000/svg" xmlns:xlink="http://www.w3.org/1999/xlink" x="0px" y="0px"
	 viewBox="0 0 228.2 100" style="enable-background:new 0 0 228.2 100;" xml:space="preserve">
<style type="text/css">
	.st0{fill:#FFFFFF;}
</style>
<path class="st0" d="M31,54c11.1,0,22.2,0,33.2,0c0-2.8,0-5.5,0-8.3c-0.1,0-0.3,0-0.5,0c-13.5,0-27,0-40.5,0c-0.4,0-0.7-0.1-1-0.4
	c-2.1-2.1-4.2-4.2-6.3-6.3c-0.1-0.1-0.2-0.2-0.4-0.4c16.7,0,33.3,0,49.8,0c0.9-2.8,1.8-5.5,2.7-8.3c-0.1,0-0.3,0-0.5,0
	c-19.9,0-39.9,0-59.8,0c-0.4,0-0.7-0.1-1-0.4c-2.1-2.1-4.2-4.2-6.4-6.4c-0.1-0.1-0.2-0.2-0.4-0.4c0.3,0,0.4,0,0.6,0
	c23.6,0,47.2,0,70.8,0c0.4,0,0.7-0.1,0.9-0.5C78.4,13.4,86.7,6.8,97.1,3c3.5-1.3,7.2-2.1,10.9-2.6c3.1-0.4,6.3-0.5,9.4-0.3
	c10,0.7,19,4.1,27,10.1c4.6,3.5,8.5,7.6,11.6,12.5c0.2,0.3,0.4,0.4,0.8,0.4c23.6,0,47.2,0,70.8,0c0.2,0,0.4,0,0.7,0
	c-0.2,0.2-0.3,0.3-0.4,0.4c-2.1,2.1-4.3,4.3-6.4,6.4c-0.2,0.2-0.5,0.3-0.9,0.3c-19.9,0-39.9,0-59.8,0c-0.2,0-0.4,0-0.6,0
	c0.9,2.8,1.8,5.5,2.7,8.3c16.5,0,33.1,0,49.8,0c-0.2,0.2-0.3,0.3-0.4,0.4c-2.1,2.1-4.2,4.2-6.3,6.3c-0.3,0.3-0.5,0.4-0.9,0.4
	c-13.5,0-27,0-40.5,0c-0.2,0-0.4,0-0.6,0c0,2.8,0,5.5,0,8.3c11,0,22.1,0,33.2,0c-0.1,0.1-0.1,0.2-0.2,0.3c-2.2,2.2-4.4,4.4-6.6,6.6
	c-0.1,0.1-0.4,0.2-0.6,0.2c-6.1,0-12.2,0-18.3,0c-2.7,0-5.5,0-8.3,0c-0.2,0-0.4,0-0.5,0.3c-0.6,2.7-1.4,5.3-2.5,7.8c0,0,0,0.1,0,0.2
	c7.2,0,14.3,0,21.6,0c-0.2,0.2-0.3,0.3-0.4,0.4c-2.2,2.2-4.3,4.3-6.5,6.5c-0.2,0.2-0.4,0.3-0.7,0.3c-5.8,0-11.6,0-17.4,0
	c-0.4,0-0.6,0.1-0.7,0.4c-5.2,8-12,14.1-20.6,18.2c-4.2,2-8.6,3.4-13.3,4.2c-3,0.5-6.1,0.8-9.2,0.7c-10.9-0.3-20.7-3.7-29.4-10.3
	c-4.6-3.5-8.5-7.7-11.6-12.6c-0.2-0.4-0.5-0.5-0.9-0.5c-5.8,0-11.5,0-17.3,0c-0.3,0-0.5-0.1-0.8-0.3c-2.1-2.1-4.3-4.3-6.4-6.4
	c-0.1-0.1-0.3-0.2-0.4-0.3c0,0,0-0.1,0.1-0.1c7.2,0,14.3,0,21.4,0c-0.9-2.8-1.7-5.5-2.6-8.4c-0.1,0-0.3,0-0.5,0
	c-8.7,0-17.4,0-26.1,0c-0.5,0-0.8-0.1-1.2-0.5c-2.1-2.1-4.1-4.1-6.2-6.2C31.2,54.3,31.1,54.2,31,54z M157.3,50
	c0-23.9-19.3-43.2-43.2-43.2C90.1,6.8,70.9,26.3,70.9,50c0,23.8,19.4,43.3,43.3,43.2C138,93.2,157.3,73.9,157.3,50z M91.6,53.5
	c-1.4-4.8-2.8-9.5-4.2-14.3c-0.1-0.3-0.2-0.4-0.6-0.4c-2.2,0-4.4,0-6.6,0c-0.1,0-0.3,0-0.4,0c0,7.5,0,14.9,0,22.4c1.6,0,3.1,0,4.7,0
	c0-5.8,0-11.5,0-17.3c0.1,0.1,0.2,0.3,0.2,0.4c1.5,5.5,3.1,11,4.6,16.5c0.1,0.3,0.2,0.4,0.5,0.4c1.3,0,2.7,0,4,0
	c0.3,0,0.5-0.1,0.5-0.4c1.2-4.3,2.4-8.5,3.6-12.8c0.4-1.4,0.8-2.7,1.2-4.1c0,0,0.1,0,0.1,0c0,5.8,0,11.5,0,17.3c1.6,0,3.1,0,4.6,0
	c0-7.5,0-14.9,0-22.4c-0.2,0-0.3,0-0.5,0c-2.2,0-4.3,0-6.5,0c-0.4,0-0.6,0.1-0.7,0.5c-1.3,4.6-2.7,9.2-4,13.8
	c-0.1,0.3-0.2,0.5-0.3,0.9C91.7,53.8,91.6,53.6,91.6,53.5z M138.3,38.8c-1.6,0-3.1,0-4.7,0c0,4.9,0,9.9,0,14.9
	c-0.2-0.2-0.3-0.4-0.3-0.5c-3.2-4.7-6.4-9.3-9.6-14c-0.2-0.3-0.4-0.4-0.7-0.4c-1.3,0-2.5,0-3.8,0c-0.2,0-0.4,0-0.6,0
	c0,7.5,0,15,0,22.4c1.6,0,3.1,0,4.6,0c0-4.8,0-9.6,0-14.4c0.2,0.1,0.3,0.2,0.4,0.3c3.1,4.6,6.3,9.1,9.4,13.7
	c0.2,0.3,0.4,0.4,0.7,0.4c0.9,0,1.8,0,2.6,0c0.7,0,1.3,0,2,0C138.3,53.7,138.3,46.3,138.3,38.8z M108.7,61.2c1.7,0,3.3,0,5,0
	c0-7.5,0-14.9,0-22.4c-1.7,0-3.3,0-5,0C108.7,46.3,108.7,53.7,108.7,61.2z M148.5,38.8c-1.7,0-3.3,0-5,0c0,7.5,0,14.9,0,22.4
	c1.7,0,3.3,0,5,0C148.5,53.7,148.5,46.3,148.5,38.8z"/>
</svg>
